<?xml version="1.0" encoding="utf-8"?>
<!-- Generator: Adobe Illustrator 19.2.1, SVG Export Plug-In . SVG Version: 6.00 Build 0)  -->
<svg version="1.1" id="Camada_1" xmlns="http://www.w3.org/2000/svg" xmlns:xlink="http://www.w3.org/1999/xlink" x="0px" y="0px"
	 viewBox="0 0 80 80" style="enable-background:new 0 0 80 80;" xml:space="preserve">
<style type="text/css">
	.st0{fill:#FFFFFF;}
</style>
<path id="XMLID_92_" class="st0" d="M76.9,32.7L72.2,32c-0.8-3.3-2.1-6.4-3.8-9.3l2.8-3.8c0.9-1.2,0.7-2.8-0.3-3.8L64.7,9
	c-1-1-2.6-1.1-3.8-0.3l-3.8,2.8c-2.8-1.7-6-3-9.3-3.8L47.2,3c-0.2-1.4-1.4-2.5-2.9-2.5h-8.7c-1.4,0-2.7,1-2.9,2.5L32,7.7
	c-3.3,0.8-6.4,2.1-9.3,3.8l-3.8-2.8C17.8,7.8,16.1,8,15.1,9L9,15.1c-1,1-1.1,2.6-0.3,3.8l2.8,3.8c-1.7,2.8-3,6-3.8,9.3L3,32.7
	c-1.4,0.2-2.5,1.4-2.5,2.9v8.7c0,1.4,1,2.7,2.5,2.9l4.7,0.7c0.8,3.3,2.1,6.4,3.8,9.3L8.7,61C7.8,62.1,8,63.7,9,64.7l6.2,6.2
	c1,1,2.6,1.1,3.8,0.3l3.8-2.8c2.8,1.7,6,3,9.3,3.8l0.7,4.7c0.2,1.4,1.4,2.5,2.9,2.5h8.7c1.4,0,2.7-1,2.9-2.5l0.7-4.7
	c3.3-0.8,6.4-2.1,9.3-3.8l3.8,2.8c1.2,0.9,2.8,0.7,3.8-0.3l6.2-6.2c1-1,1.1-2.6,0.3-3.8l-2.8-3.8c1.7-2.8,3-6,3.8-9.3l4.7-0.7
	c1.4-0.2,2.5-1.4,2.5-2.9v-8.7C79.4,34.1,78.3,32.9,76.9,32.7z M56.6,39.9c0,0.4,0,0.8,0,1.1c-0.3,3.7-1.7,7.1-4.1,9.8
	c-0.5,0.6-1,1.1-1.6,1.6c-2.7,2.3-6.1,3.8-9.8,4.1c-0.4,0-0.7,0-1.1,0c-0.4,0-0.8,0-1.1,0c-3.7-0.3-7.1-1.7-9.8-4.1
	c-0.6-0.5-1.1-1-1.6-1.6c-2.3-2.7-3.8-6.1-4.1-9.8c0-0.4,0-0.7,0-1.1c0-0.4,0-0.8,0-1.1c0.2-3.7,1.7-7.1,4.1-9.8
	c0.5-0.6,1-1.1,1.6-1.6c2.7-2.3,6.1-3.8,9.8-4.1c0.4,0,0.7,0,1.1,0c0.4,0,0.8,0,1.1,0c3.7,0.3,7.1,1.7,9.8,4.1
	c0.6,0.5,1.1,1,1.6,1.6c2.3,2.7,3.8,6.1,4.1,9.8C56.5,39.2,56.6,39.6,56.6,39.9z"/>
</svg>
