<?xml version="1.0" encoding="utf-8"?>
<!-- Generator: Adobe Illustrator 19.2.1, SVG Export Plug-In . SVG Version: 6.00 Build 0)  -->
<svg version="1.1" id="Camada_1" xmlns="http://www.w3.org/2000/svg" xmlns:xlink="http://www.w3.org/1999/xlink" x="0px" y="0px"
	 viewBox="0 0 200 200" style="enable-background:new 0 0 200 200;" xml:space="preserve">
<style type="text/css">
	.st0{fill:#FFFFFF;}
	.st1{fill:#1E293B;}
</style>
<path class="st0" d="M100,0C44.8,0,0,44.8,0,100s44.8,100,100,100s100-44.8,100-100S155.2,0,100,0z M165,100.1
	c0,5.2-4.3,9.5-9.5,9.5h-45.9v45.9c0,5.2-4.3,9.5-9.5,9.5h-0.2c-5.2,0-9.5-4.3-9.5-9.5v-45.9H44.5c-5.2,0-9.5-4.3-9.5-9.5v-0.2
	c0-5.2,4.3-9.5,9.5-9.5h45.9V44.5c0-5.2,4.3-9.5,9.5-9.5h0.2c5.2,0,9.5,4.3,9.5,9.5v45.9h45.9c5.2,0,9.5,4.3,9.5,9.5V100.1z"/>
<path class="st1" d="M165,99.9v0.2c0,5.2-4.3,9.5-9.5,9.5h-45.9v45.9c0,5.2-4.3,9.5-9.5,9.5h-0.2c-5.2,0-9.5-4.3-9.5-9.5v-45.9H44.5
	c-5.2,0-9.5-4.3-9.5-9.5v-0.2c0-5.2,4.3-9.5,9.5-9.5h45.9V44.5c0-5.2,4.3-9.5,9.5-9.5h0.2c5.2,0,9.5,4.3,9.5,9.5v45.9h45.9
	C160.7,90.4,165,94.7,165,99.9z"/>
</svg>
