<?xml version="1.0" encoding="iso-8859-1"?>
<!-- Generator: Adobe Illustrator 19.0.0, SVG Export Plug-In . SVG Version: 6.00 Build 0)  -->
<svg xmlns="http://www.w3.org/2000/svg" xmlns:xlink="http://www.w3.org/1999/xlink" version="1.1" id="Layer_1" x="0px" y="0px" viewBox="0 0 218.209 218.209" style="enable-background:new 0 0 218.209 218.209;" xml:space="preserve" width="512px" height="512px">
<g>
	<g>
		<path d="M214.31,87.673h-14.269c-8.019-33.425-34.141-59.542-67.558-67.556V5.846c0-2.152-1.745-3.897-3.897-3.897H93.517    c-2.152,0-3.897,1.745-3.897,3.897v14.273c-33.437,8.018-59.533,34.093-67.556,67.555H3.897C1.745,87.673,0,89.418,0,91.57v35.069    c0,2.152,1.745,3.897,3.897,3.897H22.06c8.009,33.36,34.185,59.553,67.561,67.561v14.266c0,2.152,1.745,3.897,3.897,3.897h35.069    c2.152,0,3.897-1.745,3.897-3.897v-14.26c33.476-8.033,59.548-34.194,67.552-67.567h14.276c2.152,0,3.897-1.745,3.897-3.897V91.57    C218.207,89.418,216.462,87.673,214.31,87.673z M97.414,9.742h27.276v27.276H97.414V9.742z M7.793,122.743V95.467h27.276v27.276    H7.793z M124.69,208.467H97.414v-27.276h27.276V208.467z M132.483,190.055v-12.761c0-2.152-1.745-3.897-3.897-3.897H93.517    c-2.152,0-3.897,1.745-3.897,3.897v12.763c-29.059-7.67-51.859-30.476-59.526-59.521h8.871c2.152,0,3.897-1.745,3.897-3.897V91.57    c0-2.152-1.745-3.897-3.897-3.897h-8.874c7.675-29.136,30.414-51.867,59.53-59.537v12.778c0,2.152,1.745,3.897,3.897,3.897h35.069    c2.152,0,3.897-1.745,3.897-3.897V28.142c29.096,7.67,51.855,30.428,59.529,59.532h-12.77c-2.152,0-3.897,1.745-3.897,3.897    v35.069c0,2.152,1.745,3.897,3.897,3.897h12.787C184.369,159.597,161.627,182.369,132.483,190.055z M210.414,122.742h-12.259    c-0.131-0.041-0.235-0.129-0.373-0.156c-0.671-0.131-1.311-0.034-1.916,0.156h-12.728V95.467h27.276V122.742z" fill="#FFFFFF"/>
	</g>
</g>
<g>
</g>
<g>
</g>
<g>
</g>
<g>
</g>
<g>
</g>
<g>
</g>
<g>
</g>
<g>
</g>
<g>
</g>
<g>
</g>
<g>
</g>
<g>
</g>
<g>
</g>
<g>
</g>
<g>
</g>
</svg>
