<?xml version="1.0" encoding="utf-8"?>
<!-- Generator: Adobe Illustrator 19.2.1, SVG Export Plug-In . SVG Version: 6.00 Build 0)  -->
<svg version="1.1" id="Camada_1" xmlns="http://www.w3.org/2000/svg" xmlns:xlink="http://www.w3.org/1999/xlink" x="0px" y="0px"
	 viewBox="0 0 512 512" style="enable-background:new 0 0 512 512;" xml:space="preserve">
<style type="text/css">
	.st0{fill:#FFFFFF;}
</style>
<path class="st0" d="M245.7,278.7c-0.8-0.6-1.6-1.2-2.3-1.9l-7.6-7.6c-0.7-0.7-1.4-1.5-1.9-2.3L245.7,278.7z"/>
<path class="st0" d="M377.2,194L229.6,341.7c-4.5,4.5-11.5,5-16.5,1.4l-78.3-78.3c-5-5-5-13.2,0-18.2l5.4-5.4c5-5,13.2-5,18.2,0
	l62.2,62.2l133-133c5-5,13.2-5,18.2,0l5.4,5.4C382.3,180.8,382.3,189,377.2,194z"/>
</svg>
