<?xml version="1.0" encoding="utf-8"?>
<!-- Generator: Adobe Illustrator 19.2.1, SVG Export Plug-In . SVG Version: 6.00 Build 0)  -->
<svg version="1.1" id="Camada_1" xmlns="http://www.w3.org/2000/svg" xmlns:xlink="http://www.w3.org/1999/xlink" x="0px" y="0px"
	 viewBox="0 0 200 200" style="enable-background:new 0 0 200 200;" xml:space="preserve">
<style type="text/css">
	.st0{fill:#4C6888;}
	.st1{fill:#FFFFFF;}
</style>
<path class="st0" d="M155,0H45C20.3,0,0,20.3,0,45v110c0,24.8,20.3,45,45,45h110c24.8,0,45-20.3,45-45V45C200,20.3,179.8,0,155,0z
	 M82.4,143.7H71.9V81.5h10.5V143.7z M82.4,69.9H71.9V57.8h10.5V69.9z M126.5,66.6c-2.2-0.4-4.3-0.6-6.2-0.6c-3.2,0-5.5,0.7-6.8,2.1
	s-2,3.9-2,7.7v5.7h12.1v8.2h-12.1v54H101v-54h-9.3v-8.2h9.3v-6.6c0-4.2,0.4-7.3,1.1-9.3c1-2.7,2.8-5,5.4-6.7s6.1-2.5,10.8-2.5
	c3,0,6.2,0.4,9.8,1.1L126.5,66.6z"/>
<path class="st1" d="M111.5,75.8v5.7h12.1v8.2h-12.1v54H101v-54h-9.3v-8.2h9.3v-6.6c0-4.2,0.4-7.3,1.1-9.3c1-2.7,2.8-5,5.4-6.7
	s6.1-2.5,10.8-2.5c3,0,6.2,0.4,9.8,1.1l-1.6,9.1c-2.2-0.4-4.3-0.6-6.2-0.6c-3.2,0-5.5,0.7-6.8,2.1C112.2,69.5,111.5,72,111.5,75.8z"
	/>
<rect x="71.9" y="57.8" class="st1" width="10.5" height="12.1"/>
<rect x="71.9" y="81.5" class="st1" width="10.5" height="62.2"/>
</svg>
