<?xml version="1.0" encoding="utf-8"?>
<!-- Generator: Adobe Illustrator 19.2.1, SVG Export Plug-In . SVG Version: 6.00 Build 0)  -->
<svg version="1.1" id="Camada_1" xmlns="http://www.w3.org/2000/svg" xmlns:xlink="http://www.w3.org/1999/xlink" x="0px" y="0px"
	 viewBox="0 0 200 200" style="enable-background:new 0 0 200 200;" xml:space="preserve">
<style type="text/css">
	.st0{fill:#4C6888;}
	.st1{fill:#FFFFFF;}
</style>
<g>
	<path class="st0" d="M69.2,124.1c-2,3.1-4.7,5.6-8.1,7.6s-6.6,3-9.8,3c-5.1,0-9-1.8-11.8-5.6c-2.8-3.7-4.2-7.3-4.2-10.8
		c0-2.8,1-5.7,3-8.6s5.8-6,11.6-9.6L69.2,124.1z"/>
	<path class="st0" d="M65.2,73.9c0,2.4-0.7,4.7-2,6.7c-1.4,2-4.3,4.4-8.9,7.1l-4.7-5.4c-1.3-1.6-2.4-3.2-3-4.7c-0.7-1.5-1-2.9-1-4.2
		c0-2.6,0.9-4.9,2.8-6.7c1.9-1.9,4.2-2.8,7.1-2.8c2.7,0,5,0.9,6.9,2.8C64.3,68.6,65.2,71,65.2,73.9z"/>
	<path class="st0" d="M145.3,73.9c0,2.4-0.7,4.7-2,6.7c-1.4,2-4.3,4.4-8.9,7.1l-4.7-5.4c-1.4-1.6-2.4-3.2-3-4.7
		c-0.7-1.5-1-2.9-1-4.2c0-2.6,0.9-4.9,2.8-6.7c1.9-1.9,4.2-2.8,7.1-2.8c2.7,0,5,0.9,6.9,2.8C144.4,68.6,145.3,71,145.3,73.9z"/>
	<path class="st0" d="M155,0H45C20.3,0,0,20.3,0,45v110c0,24.8,20.3,45,45,45h110c24.8,0,45-20.3,45-45V45C200,20.3,179.8,0,155,0z
		 M89,144.7c-4.3-2.7-8.7-6.8-13.2-12.1c-3.5,3.9-7.3,6.8-11.4,8.7s-8.5,2.9-13.3,2.9c-8.8,0-15.8-3-20.9-8.9
		c-4.2-4.8-6.3-10.3-6.3-16.2c0-5.3,1.7-10.1,5.1-14.4s8.5-8,15.3-11.3c-3.9-4.5-6.4-8.1-7.7-10.8c-1.3-2.8-1.9-5.4-1.9-8
		c0-5.2,2-9.6,6.1-13.4c4.1-3.8,9.1-5.7,15.3-5.7c5.9,0,10.7,1.8,14.4,5.4c3.7,3.6,5.6,7.9,5.6,12.9c0,8.2-5.4,15.1-16.2,20.9
		l15.4,19.6c1.8-3.4,3.1-7.4,4.1-12l11,2.3c-1.9,7.5-4.4,13.7-7.6,18.5c3.9,5.2,8.4,9.6,13.4,13.2L89,144.7z M169,144.7
		c-4.3-2.7-8.7-6.8-13.2-12.1c-3.5,3.9-7.3,6.8-11.4,8.7c-4.1,1.9-8.5,2.9-13.3,2.9c-8.8,0-15.8-3-20.9-8.9
		C106,130.4,104,125,104,119c0-5.3,1.7-10.1,5.1-14.4s8.5-8,15.3-11.3c-3.9-4.5-6.4-8.1-7.7-10.8c-1.3-2.8-1.9-5.4-1.9-8
		c0-5.2,2-9.6,6.1-13.4c4.1-3.8,9.1-5.7,15.3-5.7c5.9,0,10.7,1.8,14.4,5.4s5.6,7.9,5.6,12.9c0,8.2-5.4,15.1-16.2,20.9l15.4,19.6
		c1.8-3.4,3.1-7.4,4.1-12l11,2.3c-1.9,7.5-4.4,13.7-7.6,18.5c3.9,5.2,8.4,9.6,13.4,13.2L169,144.7z"/>
	<path class="st1" d="M162.9,123c3.2-4.8,5.7-11,7.6-18.5l-11-2.3c-1,4.6-2.3,8.6-4.1,12L140,94.6c10.8-5.8,16.2-12.7,16.2-20.9
		c0-5-1.9-9.3-5.6-12.9c-3.7-3.6-8.5-5.4-14.4-5.4c-6.2,0-11.2,1.9-15.3,5.7c-4.1,3.8-6.1,8.2-6.1,13.4c0,2.6,0.6,5.2,1.9,8
		c1.3,2.7,3.8,6.3,7.7,10.8c-6.8,3.3-11.9,7-15.3,11.3s-5.1,9.1-5.1,14.4c0,6,2,11.4,6.2,16.3c5.1,5.9,12.1,8.9,20.9,8.9
		c4.8,0,9.2-1,13.3-2.9s7.9-4.8,11.4-8.7c4.5,5.3,8.9,9.4,13.2,12.1l7.3-8.5C171.3,132.6,166.8,128.2,162.9,123z M128.5,66.7
		c1.9-1.9,4.2-2.8,7.1-2.8c2.7,0,5,0.9,6.9,2.8s2.8,4.3,2.8,7.2c0,2.4-0.7,4.7-2,6.7c-1.4,2-4.3,4.4-8.9,7.1l-4.7-5.4
		c-1.4-1.6-2.4-3.2-3-4.7c-0.7-1.5-1-2.9-1-4.2C125.7,70.8,126.6,68.5,128.5,66.7z M141.1,131.7c-3.4,2-6.6,3-9.8,3
		c-5.1,0-9-1.8-11.8-5.6c-2.8-3.7-4.2-7.3-4.2-10.8c0-2.8,1-5.7,3-8.6s5.8-6,11.6-9.6l19.3,24C147.2,127.2,144.5,129.7,141.1,131.7z
		"/>
	<path class="st1" d="M82.8,123.1c3.2-4.8,5.7-11,7.6-18.5l-11-2.3c-1,4.6-2.3,8.6-4.1,12L59.9,94.7C70.7,88.9,76.1,82,76.1,73.8
		c0-5-1.9-9.3-5.6-12.9s-8.5-5.4-14.4-5.4c-6.2,0-11.2,1.9-15.3,5.7s-6.1,8.2-6.1,13.4c0,2.6,0.6,5.2,1.9,8
		c1.3,2.7,3.8,6.3,7.7,10.8c-6.8,3.3-11.9,7-15.3,11.3s-5.1,9.1-5.1,14.4c0,5.9,2.1,11.4,6.3,16.2c5.1,5.9,12.1,8.9,20.9,8.9
		c4.8,0,9.2-1,13.3-2.9s7.9-4.8,11.4-8.7c4.5,5.3,8.9,9.4,13.2,12.1l7.2-8.4C91.2,132.7,86.7,128.3,82.8,123.1z M48.4,66.7
		c1.9-1.9,4.2-2.8,7.1-2.8c2.7,0,5,0.9,6.9,2.8s2.8,4.3,2.8,7.2c0,2.4-0.7,4.7-2,6.7c-1.4,2-4.3,4.4-8.9,7.1l-4.7-5.4
		c-1.3-1.6-2.4-3.2-3-4.7c-0.7-1.5-1-2.9-1-4.2C45.6,70.8,46.5,68.5,48.4,66.7z M61.1,131.7c-3.4,2-6.6,3-9.8,3
		c-5.1,0-9-1.8-11.8-5.6c-2.8-3.7-4.2-7.3-4.2-10.8c0-2.8,1-5.7,3-8.6s5.8-6,11.6-9.6l19.3,24C67.2,127.2,64.5,129.7,61.1,131.7z"/>
	<path class="st0" d="M149.2,124.1c-2,3.1-4.7,5.6-8.1,7.6c-3.4,2-6.6,3-9.8,3c-5.1,0-9-1.8-11.8-5.6c-2.8-3.7-4.2-7.3-4.2-10.8
		c0-2.8,1-5.7,3-8.6s5.8-6,11.6-9.6L149.2,124.1z"/>
</g>
</svg>
