<?xml version="1.0" encoding="utf-8"?>
<!-- Generator: Adobe Illustrator 19.2.1, SVG Export Plug-In . SVG Version: 6.00 Build 0)  -->
<svg version="1.1" id="Camada_1" xmlns="http://www.w3.org/2000/svg" xmlns:xlink="http://www.w3.org/1999/xlink" x="0px" y="0px"
	 viewBox="0 0 200 200" style="enable-background:new 0 0 200 200;" xml:space="preserve">
<style type="text/css">
	.st0{fill:#FFFFFF;}
</style>
<path class="st0" d="M166.4,117.7L200,100l-33.6-17.7l20.2-32.2l-37.9,1.2l1.4-37.9l-32.2,20.2L100,0L82.3,33.6L50.1,13.4l1.2,37.9
	l-37.9-1.4l20.2,32.2L0,100l33.6,17.7l-20.2,32.2l37.9-1.2l-1.4,37.9l32.2-20.2L99.8,200l17.7-33.6l32.2,20.2l-1-37.9l37.9,1.4
	L166.4,117.7z M100,152.2c-28.9,0-52.2-23.3-52.2-52.2S71.1,47.8,100,47.8s52.2,23.3,52.2,52.2S128.7,152.2,100,152.2z"/>
<circle class="st0" cx="100" cy="100" r="47.8"/>
</svg>
