<?xml version="1.0" encoding="utf-8"?>
<!-- Generator: Adobe Illustrator 19.2.1, SVG Export Plug-In . SVG Version: 6.00 Build 0)  -->
<svg version="1.1" id="Camada_1" xmlns="http://www.w3.org/2000/svg" xmlns:xlink="http://www.w3.org/1999/xlink" x="0px" y="0px"
	 viewBox="0 0 200 200" style="enable-background:new 0 0 200 200;" xml:space="preserve">
<style type="text/css">
	.st0{fill:#4C6888;}
	.st1{fill:#FFFFFF;}
</style>
<g>
	<path class="st0" d="M151.6,110.7c0,8.1-1.7,14.2-5.2,18.2s-7.9,6-13.1,6s-9.6-1.9-13.1-5.9s-5.2-9.9-5.2-17.9s1.7-14,5.2-17.9
		s7.8-5.9,13.1-5.9c5.2,0,9.6,2,13.1,5.9C149.9,97.2,151.6,103,151.6,110.7z"/>
	<path class="st0" d="M155,0H45C20.3,0,0,20.3,0,45v110c0,24.8,20.3,45,45,45h110c24.8,0,45-20.3,45-45V45C200,20.3,179.8,0,155,0z
		 M91.4,142.2h-9.7v-7.9c-3.9,6.2-9.7,9.3-17.4,9.3c-5,0-9.5-1.4-13.7-4.1c-4.2-2.7-7.4-6.6-9.7-11.5c-2.3-4.9-3.4-10.5-3.4-16.9
		c0-6.2,1-11.8,3.1-16.9s5.2-8.9,9.3-11.6s8.8-4,13.9-4c3.8,0,7.1,0.8,10,2.4s5.3,3.6,7.1,6.2V56.3h10.5
		C91.4,56.3,91.4,142.2,91.4,142.2z M158.9,129.2c-2.4,4.6-5.9,8.2-10.5,10.7s-9.6,3.8-15,3.8c-8.7,0-15.8-2.8-21.1-8.4
		c-5.4-5.6-8.1-13.6-8.1-24.1c0-11.5,3.2-20.1,9.6-25.6c5.4-4.6,11.9-6.9,19.6-6.9c8.6,0,15.5,2.8,21,8.4c5.4,5.6,8.1,13.4,8.1,23.2
		C162.5,118.3,161.3,124.6,158.9,129.2z"/>
	<path class="st1" d="M154.4,87.1c-5.5-5.6-12.4-8.4-21-8.4c-7.7,0-14.2,2.3-19.6,6.9c-6.4,5.5-9.6,14.1-9.6,25.6
		c0,10.5,2.7,18.5,8.1,24.1c5.3,5.6,12.4,8.4,21.1,8.4c5.4,0,10.4-1.3,15-3.8s8.1-6.1,10.5-10.7c2.4-4.6,3.6-10.9,3.6-18.9
		C162.5,100.5,159.8,92.7,154.4,87.1z M146.4,128.9c-3.5,4-7.9,6-13.1,6s-9.6-1.9-13.1-5.9s-5.2-9.9-5.2-17.9s1.7-14,5.2-17.9
		s7.8-5.9,13.1-5.9c5.2,0,9.6,2,13.1,5.9c3.5,4,5.2,9.8,5.2,17.5C151.6,118.8,149.9,124.9,146.4,128.9z"/>
	<path class="st1" d="M80.9,56.3v30.9c-1.8-2.6-4.2-4.6-7.1-6.2s-6.2-2.4-10-2.4c-5.1,0-9.8,1.3-13.9,4s-7.2,6.5-9.3,11.6
		s-3.1,10.7-3.1,16.9c0,6.4,1.1,12,3.4,16.9c2.3,4.9,5.5,8.8,9.7,11.5s8.7,4.1,13.7,4.1c7.7,0,13.5-3.1,17.4-9.3v7.9h9.7V56.3H80.9z
		 M77,129.2c-3.2,3.8-7.1,5.7-11.7,5.7s-8.5-2-11.9-5.9c-3.3-4-5-9.9-5-17.9c0-8.2,1.6-14.3,4.7-18.1c3.1-3.8,7-5.7,11.7-5.7
		c4.8,0,8.8,1.8,12.1,5.8c3.3,4,4.9,10.3,4.9,18.8C81.8,119.7,80.2,125.4,77,129.2z"/>
	<path class="st0" d="M81.8,111.9c0,7.8-1.6,13.5-4.8,17.3c-3.2,3.8-7.1,5.7-11.7,5.7s-8.5-2-11.9-5.9c-3.3-4-5-9.9-5-17.9
		c0-8.2,1.6-14.3,4.7-18.1c3.1-3.8,7-5.7,11.7-5.7c4.8,0,8.8,1.8,12.1,5.8C80.2,97.1,81.8,103.4,81.8,111.9z"/>
</g>
</svg>
