<?xml version="1.0" encoding="utf-8"?>
<!-- Generator: Adobe Illustrator 19.2.1, SVG Export Plug-In . SVG Version: 6.00 Build 0)  -->
<svg version="1.1" id="Camada_1" xmlns="http://www.w3.org/2000/svg" xmlns:xlink="http://www.w3.org/1999/xlink" x="0px" y="0px"
	 viewBox="0 0 200 200" style="enable-background:new 0 0 200 200;" xml:space="preserve">
<style type="text/css">
	.st0{fill:#FFFFFF;}
</style>
<g>
	<path class="st0" d="M105.4,98.7c0,39.5-24.1,60.7-53.4,60.7c-30.5,0-51.7-23.6-51.7-58.3c0-36.6,22.7-60.4,53.4-60.4
		C85.2,40.5,105.4,64.6,105.4,98.7z M16.2,100.7c0,24.6,13.4,46.6,36.8,46.6c23.6,0,36.8-21.7,36.8-47.8c0-22.9-11.9-46.8-36.8-46.8
		C28.7,52.6,16.2,75.3,16.2,100.7z"/>
	<path class="st0" d="M124.7,43.9c7.6-1.5,18.3-2.4,28.5-2.4c15.8,0,26.1,2.9,33.4,9.5c5.8,5.1,9,12.9,9,21.9
		c0,15.1-9.5,25.3-21.7,29.2v0.5c8.8,3.2,14.1,11.2,16.8,23.2c3.7,16.1,6.6,27.1,8.8,31.7h-15.4c-1.9-3.2-4.4-13.2-7.8-27.5
		c-3.4-15.8-9.5-21.9-23.2-22.4h-13.9v49.7h-14.9V43.9H124.7z M139.6,96.3h15.1c15.8,0,25.8-8.8,25.8-21.9
		c0-14.9-10.7-21.4-26.6-21.4c-7.1,0-12.2,0.7-14.6,1.5v41.9L139.6,96.3L139.6,96.3z"/>
</g>
</svg>
