<?xml version="1.0" encoding="utf-8"?>
<!-- Generator: Adobe Illustrator 19.2.1, SVG Export Plug-In . SVG Version: 6.00 Build 0)  -->
<svg version="1.1" id="Camada_1" xmlns="http://www.w3.org/2000/svg" xmlns:xlink="http://www.w3.org/1999/xlink" x="0px" y="0px"
	 viewBox="0 0 50 80" style="enable-background:new 0 0 50 80;" xml:space="preserve">
<style type="text/css">
	.st0{fill:#FFFFFF;}
</style>
<path id="XMLID_116_" class="st0" d="M45.8,42.1c2-3.5,4.2-7.4,4.2-14.3C50,14.1,38.9,3,25.2,3S0.4,14.1,0.4,27.8
	c0,6.9,2.2,10.8,4.2,14.3c1.7,2.9,3.1,5.5,3.6,10.2c0,0.9,0.3,1.8,0.7,2.6c-0.6,0.8-1,1.7-1,2.8v0.9c0,1.2,0.5,2.2,1.2,3
	c-0.8,0.8-1.2,1.8-1.2,3v0.9c0,2.3,1.8,4.2,4,4.3c0,0.2,0,0.4,0,0.6c0,3.6,5.9,6.5,13.2,6.5s13.2-2.9,13.2-6.5c0-0.2,0-0.4,0-0.6
	c2.2-0.2,4-2,4-4.3v-0.9c0-1.2-0.5-2.2-1.2-3c0.8-0.8,1.2-1.8,1.2-3v-0.9c0-1.1-0.4-2-1-2.8c0.4-0.8,0.7-1.7,0.7-2.7
	C42.7,47.6,44.1,45,45.8,42.1z M39.2,58.2c0,0.6-0.2,1.1-0.6,1.5c-0.4,0.4-0.9,0.6-1.5,0.6H13.4c-1.2,0-2.2-1-2.2-2.2
	c0-0.6,0.2-1.1,0.6-1.5c0.4-0.4,0.9-0.6,1.5-0.6H37C38.3,56,39.2,57,39.2,58.2z M25.1,74.1c-5.3,0-9.5-1.9-9.5-4.2h19.1
	C34.7,72.2,30.4,74.1,25.1,74.1z M38.6,66.6c-0.2,0.2-0.4,0.4-0.7,0.5s-0.5,0.2-0.8,0.2H13.4c-0.3,0-0.6-0.1-0.9-0.2
	c-0.8-0.3-1.3-1.1-1.3-2c0-0.6,0.2-1.1,0.6-1.5c0.4-0.4,0.9-0.6,1.5-0.6H37c1.2,0,2.2,1,2.2,2.2C39.2,65.7,39,66.2,38.6,66.6z
	 M37.5,52c0,0.6-0.2,1.1-0.6,1.4H13.5c-0.4-0.4-0.6-0.9-0.6-1.4l0,0C11.6,40,5,38.8,5,27.8C5,16.7,14,7.6,25.2,7.6
	c11.1,0,20.2,9,20.2,20.2C45.4,38.8,38.8,40,37.5,52z"/>
</svg>
