<?xml version="1.0" encoding="utf-8"?>
<!-- Generator: Adobe Illustrator 19.2.1, SVG Export Plug-In . SVG Version: 6.00 Build 0)  -->
<svg version="1.1" id="Camada_1" xmlns="http://www.w3.org/2000/svg" xmlns:xlink="http://www.w3.org/1999/xlink" x="0px" y="0px"
	 viewBox="0 0 70 200" style="enable-background:new 0 0 70 200;" xml:space="preserve">
<style type="text/css">
	.st0{fill:#FFFFFF;}
</style>
<path class="st0" d="M40.3,100.8v47.4c0.5,0.3,0.8,0.8,1.2,1.4l25.3,42.7c1.4,2.4,0.5,5.6-2,7s-5.8,0.5-7.2-1.9L35,159.1l-22.7,38.2
	c-1.4,2.4-4.7,3.2-7.2,1.9c-2.5-1.4-3.3-4.6-2-7l25.3-42.7c0.3-0.5,0.7-1,1.2-1.4v-47.4l-17.5,29.4c-1.4,2.4-4.7,3.2-7.2,1.9
	s-3.3-4.6-2-7l26.6-44.7V68.4C13,65.8,0,51.7,0,34.7c0-18.7,15.8-34,35-34s35,15.3,35,34c0,17-13,31.1-29.8,33.7v12.1l26.6,44.7
	c1.4,2.4,0.5,5.6-2,7s-5.8,0.5-7.2-1.9L40.3,100.8z"/>
</svg>
