<?xml version="1.0" encoding="utf-8"?>
<!-- Generator: Adobe Illustrator 19.2.1, SVG Export Plug-In . SVG Version: 6.00 Build 0)  -->
<svg version="1.1" id="Camada_1" xmlns="http://www.w3.org/2000/svg" xmlns:xlink="http://www.w3.org/1999/xlink" x="0px" y="0px"
	 viewBox="0 0 200 200" style="enable-background:new 0 0 200 200;" xml:space="preserve">
<style type="text/css">
	.st0{fill:#FFFFFF;}
</style>
<g>
	<path class="st0" d="M18.7,114.4l-8.1,24.7H0.1L26.6,61h12.1l26.6,78.1H54.5l-8.3-24.5H18.7V114.4z M44.2,106.5L36.6,84
		c-1.8-5.2-3-9.8-4.2-14.3h-0.1c-1.1,4.6-2.5,9.4-3.9,14l-7.6,22.7h23.5L44.2,106.5L44.2,106.5z"/>
	<path class="st0" d="M68.2,139V60.9h11.1l25,39.6c5.8,9.1,10.2,17.4,14,25.4l0.1-0.1c-1-10.4-1.1-19.9-1.1-32.1V60.9h9.4V139h-10.2
		L91.7,99.5C86.2,90.7,81.1,82,77.1,73.3l-0.3,0.1c0.4,10,0.8,19.2,0.8,32.3v33.4h-9.4V139L68.2,139z"/>
	<path class="st0" d="M135.7,61.9c6.2-1,13.4-1.7,21.6-1.7c14.6,0,24.8,3.4,31.7,9.8c7,6.5,11.1,15.4,11.1,27.9
		c0,12.8-3.9,23.2-11.2,30.3c-7.3,7.3-19.4,11.2-34.6,11.2c-7.1,0-13.2-0.3-18.4-1L135.7,61.9L135.7,61.9z M145.8,130.9
		c2.5,0.4,6.3,0.4,10.2,0.4c21.6,0,33.2-12.1,33.2-33.1c0.1-18.4-10.2-30.1-31.7-30.1c-5.3,0-9.1,0.4-11.8,1L145.8,130.9
		L145.8,130.9z"/>
</g>
</svg>
