<svg id="Camada_1" data-name="Camada 1" xmlns="http://www.w3.org/2000/svg" viewBox="0 0 904.4 511.48"><defs><style>.cls-1{fill:#fff;}</style></defs><title>iconhumidade</title><path class="cls-1" d="M-847,293.57c0,48.66-12.4,94-33.72,131.91-2.27,4.07-4.66,8-7.14,11.92q-40.55,11.32-79.51,20.32a1671.91,1671.91,0,0,1-206.23,34.66q-14.27,1.47-28.24,2.66l-1.85.15a1466,1466,0,0,1-183.81,4,1302.36,1302.36,0,0,1-137.25-13q-12.16-1.82-23.72-3.77c-65.16-11.06-115.78-25.25-150.15-36.71a185.15,185.15,0,0,1-16.5-20.3c-22.72-32.39-36.28-73.32-36.28-117.84a214.44,214.44,0,0,1,2-29.22c12.47-91.14,82.36-160.91,166.71-160.91a152.74,152.74,0,0,1,75.21,19.91c29.88-69.49,85.61-121.85,152.9-140.76A205.15,205.15,0,0,1-1298.87-11c46.94,0,90.62,15.88,127.14,43.22a242.1,242.1,0,0,1,39.21,36.9,182.55,182.55,0,0,1,77.32-17.23C-940.23,51.86-847,160.06-847,293.57Z" transform="translate(1751.42 11.03)"/></svg>