<?xml version="1.0" encoding="utf-8"?>
<!-- Generator: Adobe Illustrator 19.2.1, SVG Export Plug-In . SVG Version: 6.00 Build 0)  -->
<svg version="1.1" id="Camada_1" xmlns="http://www.w3.org/2000/svg" xmlns:xlink="http://www.w3.org/1999/xlink" x="0px" y="0px"
	 viewBox="0 0 35 80" style="enable-background:new 0 0 35 80;" xml:space="preserve">
<style type="text/css">
	.st0{fill:#FFFFFF;}
</style>
<g id="XMLID_29_">
	<path id="XMLID_31_" class="st0" d="M27.8,7c-0.6-1.3-1.4-2.5-2.4-3.5s-2.2-1.8-3.5-2.4c-1.4-0.6-2.9-0.9-4.4-0.9s-3,0.3-4.3,0.9
		s-2.5,1.4-3.5,2.4S7.9,5.7,7.3,7c-0.6,1.4-0.9,2.8-0.9,4.3V49c-1.6,1.4-3,3.1-4.1,4.9c-1.4,2.6-2.2,5.5-2.2,8.4
		c0,2.3,0.5,4.6,1.4,6.8c0.9,2.1,2.1,3.9,3.7,5.5s3.5,2.9,5.5,3.7c2.1,0.9,4.4,1.4,6.8,1.4s4.6-0.5,6.8-1.4c2.1-0.9,3.9-2.1,5.5-3.7
		s2.9-3.5,3.7-5.5c0.9-2.1,1.4-4.4,1.4-6.8c0-2.9-0.7-5.9-2.2-8.4c-1-1.9-2.4-3.5-4.1-4.9V11.4C28.7,9.9,28.4,8.4,27.8,7z
		 M31.2,62.4c0,7.6-6.1,13.7-13.7,13.7s-13.7-6-13.7-13.7c0-4.8,2.5-9.1,6.2-11.5V11.4c0-4.1,3.4-7.5,7.5-7.5l0,0
		c4.1,0,7.5,3.4,7.5,7.5v0.9h-6.6c-1,0-1.8,0.5-1.8,1.5s0.8,1.6,1.8,1.6H25v4.3h-6.6c-1,0-1.8,0.5-1.8,1.5s0.8,1.6,1.8,1.6H25v4.3
		h-6.6c-1,0-1.8,0.5-1.8,1.5s0.8,1.6,1.8,1.6H25v20.9C28.7,53.4,31.2,57.6,31.2,62.4z"/>
	<path id="XMLID_19_" class="st0" d="M22.5,54.7L21.4,54v-1.3V41.5c0-2.2-1.8-3.9-3.9-3.9s-3.9,1.8-3.9,3.9v11.2V54l-1.1,0.7
		c-2.6,1.7-4.2,4.6-4.2,7.7c0,2.4,1,4.8,2.7,6.5s4,2.7,6.5,2.7s4.8-1,6.5-2.7s2.7-4,2.7-6.5C26.7,59.3,25.1,56.4,22.5,54.7z"/>
</g>
</svg>
