<?xml version="1.0" encoding="utf-8"?>
<!-- Generator: Adobe Illustrator 19.2.1, SVG Export Plug-In . SVG Version: 6.00 Build 0)  -->
<svg version="1.1" id="Camada_1" xmlns="http://www.w3.org/2000/svg" xmlns:xlink="http://www.w3.org/1999/xlink" x="0px" y="0px"
	 viewBox="0 0 512 512" style="enable-background:new 0 0 512 512;" xml:space="preserve">
<style type="text/css">
	.st0{fill:#FFFFFF;}
</style>
<path class="st0" d="M282.4,256l69.3-69.3c5.6-5.6,5.6-14.7,0-20.4l-6.1-6.1c-5.6-5.6-14.7-5.6-20.4,0L256,229.6l-69.3-69.3
	c-5.6-5.6-14.7-5.6-20.4,0l-6.1,6.1c-5.6,5.6-5.6,14.7,0,20.4l69.3,69.3l-69.3,69.3c-5.6,5.6-5.6,14.7,0,20.4l6.1,6.1
	c5.6,5.6,14.7,5.6,20.4,0l69.3-69.3l69.3,69.3c5.6,5.6,14.7,5.6,20.4,0l6.1-6.1c5.6-5.6,5.6-14.7,0-20.4L282.4,256z"/>
</svg>
