<?xml version="1.0" encoding="utf-8"?>
<!-- Generator: Adobe Illustrator 19.2.1, SVG Export Plug-In . SVG Version: 6.00 Build 0)  -->
<svg version="1.1" id="Camada_1" xmlns="http://www.w3.org/2000/svg" xmlns:xlink="http://www.w3.org/1999/xlink" x="0px" y="0px"
	 viewBox="0 0 200 200" style="enable-background:new 0 0 200 200;" xml:space="preserve">
<style type="text/css">
	.st0{fill:#FFFFFF;}
</style>
<g>
	<g>
		<path class="st0" d="M177.5,99h-5c-0.4-32.6-28-56.5-58.6-61.7c-28.1-4.8-59.8,5.5-76.3,29.6c-6.7,9.9-9.9,21-9.9,32.1h-5
			c0.1-15.6,6.1-31,17.3-43.1c21.7-23.2,57.1-30.3,86.9-20.6c27.9,9.1,50.1,33.2,50.6,63.4C177.5,98.8,177.5,98.9,177.5,99z"/>
	</g>
</g>
<g>
	<g>
		<path class="st0" d="M131.7,99.6c-0.4-13-8.3-24.7-20.6-29.3c-12.6-4.8-27.3-0.8-35.8,9.7c-8.3,10.3-9.5,25.1-2.6,36.5
			c6.9,11.3,20.3,17.2,33.3,14.8c14.9-2.8,25.1-16,25.7-30.8c0-0.1,0-0.2,0-0.3V100C131.8,99.9,131.8,99.7,131.7,99.6z M100,126.8
			c-14.6,0-26.8-12.2-26.8-26.8S85.4,73.2,100,73.2c14.8,0,26.4,12.2,26.8,26.8C126.4,114.6,114.8,126.8,100,126.8z"/>
	</g>
</g>
</svg>
